<mxfile host="app.diagrams.net" modified="2024-02-06T07:00:31.299Z" agent="Mozilla/5.0 (X11; Linux x86_64) AppleWebKit/537.36 (KHTML, like Gecko) Chrome/120.0.0.0 Safari/537.36" etag="C5akV0thYP2KwqjfnmJq" version="23.1.1" type="github">
  <diagram name="Page-1" id="BS9BLgHjy-8McKV0gcMG">
    <mxGraphModel dx="1042" dy="613" grid="1" gridSize="10" guides="1" tooltips="1" connect="1" arrows="1" fold="1" page="1" pageScale="1" pageWidth="850" pageHeight="1100" math="0" shadow="0">
      <root>
        <mxCell id="0" />
        <mxCell id="1" parent="0" />
        <mxCell id="S211bGjaOua6C-xLoYHW-5" value="" style="rounded=0;whiteSpace=wrap;html=1;" vertex="1" parent="1">
          <mxGeometry x="270" y="100" width="300" height="490" as="geometry" />
        </mxCell>
        <mxCell id="S211bGjaOua6C-xLoYHW-10" value="From pengunjung" style="ellipse;whiteSpace=wrap;html=1;" vertex="1" parent="1">
          <mxGeometry x="310" y="160" width="220" height="80" as="geometry" />
        </mxCell>
        <mxCell id="S211bGjaOua6C-xLoYHW-11" value="Pencarian buku" style="ellipse;whiteSpace=wrap;html=1;" vertex="1" parent="1">
          <mxGeometry x="315" y="260" width="220" height="80" as="geometry" />
        </mxCell>
        <mxCell id="S211bGjaOua6C-xLoYHW-12" value="Detail buku" style="ellipse;whiteSpace=wrap;html=1;" vertex="1" parent="1">
          <mxGeometry x="315" y="360" width="220" height="80" as="geometry" />
        </mxCell>
        <mxCell id="S211bGjaOua6C-xLoYHW-13" value="Laporan statistik" style="ellipse;whiteSpace=wrap;html=1;" vertex="1" parent="1">
          <mxGeometry x="315" y="460" width="220" height="80" as="geometry" />
        </mxCell>
        <mxCell id="S211bGjaOua6C-xLoYHW-17" value="&lt;br&gt;&lt;br&gt;Pengunjung" style="shape=umlActor;verticalLabelPosition=bottom;verticalAlign=top;html=1;outlineConnect=0;" vertex="1" parent="1">
          <mxGeometry x="100" y="240" width="90" height="200" as="geometry" />
        </mxCell>
        <mxCell id="S211bGjaOua6C-xLoYHW-18" value="Pustakawan" style="shape=umlActor;verticalLabelPosition=bottom;verticalAlign=top;html=1;outlineConnect=0;" vertex="1" parent="1">
          <mxGeometry x="670" y="245" width="90" height="200" as="geometry" />
        </mxCell>
        <mxCell id="S211bGjaOua6C-xLoYHW-21" value="Perpus Digital" style="text;html=1;strokeColor=none;fillColor=none;align=center;verticalAlign=middle;whiteSpace=wrap;rounded=0;" vertex="1" parent="1">
          <mxGeometry x="375" y="120" width="90" height="20" as="geometry" />
        </mxCell>
        <mxCell id="S211bGjaOua6C-xLoYHW-27" value="" style="endArrow=none;html=1;rounded=0;" edge="1" parent="1" source="S211bGjaOua6C-xLoYHW-17" target="S211bGjaOua6C-xLoYHW-10">
          <mxGeometry width="50" height="50" relative="1" as="geometry">
            <mxPoint x="170" y="365" as="sourcePoint" />
            <mxPoint x="220" y="315" as="targetPoint" />
            <Array as="points">
              <mxPoint x="210" y="220" />
            </Array>
          </mxGeometry>
        </mxCell>
        <mxCell id="S211bGjaOua6C-xLoYHW-31" value="" style="endArrow=none;html=1;rounded=0;" edge="1" parent="1" source="S211bGjaOua6C-xLoYHW-17" target="S211bGjaOua6C-xLoYHW-12">
          <mxGeometry width="50" height="50" relative="1" as="geometry">
            <mxPoint x="200" y="420" as="sourcePoint" />
            <mxPoint x="250" y="370" as="targetPoint" />
          </mxGeometry>
        </mxCell>
        <mxCell id="S211bGjaOua6C-xLoYHW-32" value="" style="endArrow=none;html=1;rounded=0;" edge="1" parent="1" target="S211bGjaOua6C-xLoYHW-17">
          <mxGeometry width="50" height="50" relative="1" as="geometry">
            <mxPoint x="310" y="310" as="sourcePoint" />
            <mxPoint x="240" y="300" as="targetPoint" />
            <Array as="points">
              <mxPoint x="310" y="310" />
            </Array>
          </mxGeometry>
        </mxCell>
        <mxCell id="S211bGjaOua6C-xLoYHW-33" value="" style="endArrow=none;html=1;rounded=0;" edge="1" parent="1" source="S211bGjaOua6C-xLoYHW-10">
          <mxGeometry width="50" height="50" relative="1" as="geometry">
            <mxPoint x="630" y="370" as="sourcePoint" />
            <mxPoint x="680" y="320" as="targetPoint" />
            <Array as="points">
              <mxPoint x="630" y="200" />
            </Array>
          </mxGeometry>
        </mxCell>
        <mxCell id="S211bGjaOua6C-xLoYHW-34" value="" style="endArrow=none;html=1;rounded=0;" edge="1" parent="1" source="S211bGjaOua6C-xLoYHW-11" target="S211bGjaOua6C-xLoYHW-18">
          <mxGeometry width="50" height="50" relative="1" as="geometry">
            <mxPoint x="630" y="380" as="sourcePoint" />
            <mxPoint x="680" y="330" as="targetPoint" />
          </mxGeometry>
        </mxCell>
        <mxCell id="S211bGjaOua6C-xLoYHW-35" value="" style="endArrow=none;html=1;rounded=0;" edge="1" parent="1" source="S211bGjaOua6C-xLoYHW-12" target="S211bGjaOua6C-xLoYHW-18">
          <mxGeometry width="50" height="50" relative="1" as="geometry">
            <mxPoint x="580" y="440" as="sourcePoint" />
            <mxPoint x="630" y="390" as="targetPoint" />
          </mxGeometry>
        </mxCell>
        <mxCell id="S211bGjaOua6C-xLoYHW-36" value="" style="endArrow=none;html=1;rounded=0;" edge="1" parent="1" source="S211bGjaOua6C-xLoYHW-13" target="S211bGjaOua6C-xLoYHW-18">
          <mxGeometry width="50" height="50" relative="1" as="geometry">
            <mxPoint x="600" y="460" as="sourcePoint" />
            <mxPoint x="650" y="410" as="targetPoint" />
          </mxGeometry>
        </mxCell>
      </root>
    </mxGraphModel>
  </diagram>
</mxfile>
